{
	"asset":{
		"generator":"Khronos glTF Blender I/O v3.6.28",
		"version":"2.0"
	},
	"scene":0,
	"scenes":[
		{
			"name":"Scene",
			"nodes":[
				0,
				1
			]
		}
	],
	"nodes":[
		{
			"mesh":0,
			"name":"\u5186\u67f1",
			"scale":[
				0.0001500000071246177,
				0.0020000000949949026,
				0.0001500000071246177
			],
			"translation":[
				0,
				0.02543136104941368,
				0
			]
		},
		{
			"mesh":1,
			"name":"\u7403",
			"scale":[
				0.014999999664723873,
				0.014999999664723873,
				0.014999999664723873
			],
			"translation":[
				0,
				0.013100000098347664,
				0
			]
		}
	],
	"materials":[
		{
			"doubleSided":true,
			"name":"apple_branch",
			"pbrMetallicRoughness":{
				"baseColorFactor":[
					0.14285318553447723,
					0.024703482165932655,
					0,
					1
				],
				"metallicFactor":0
			}
		},
		{
			"doubleSided":true,
			"name":"apple_body",
			"pbrMetallicRoughness":{
				"baseColorFactor":[
					0.8000000715255737,
					0.07475362718105316,
					0.07428617775440216,
					0.800000011920929
				],
				"metallicFactor":0.4379085302352905,
				"roughnessFactor":0.656862735748291
			}
		},
		{
			"doubleSided":true,
			"name":"\u30de\u30c6\u30ea\u30a2\u30eb",
			"pbrMetallicRoughness":{
				"baseColorFactor":[
					0.8000000715255737,
					0.5027580857276917,
					0.0321921780705452,
					1
				],
				"metallicFactor":0,
				"roughnessFactor":0.5
			}
		}
	],
	"meshes":[
		{
			"name":"\u5186\u67f1",
			"primitives":[
				{
					"attributes":{
						"POSITION":0,
						"NORMAL":1,
						"TEXCOORD_0":2
					},
					"indices":3,
					"material":0
				}
			]
		},
		{
			"name":"\u7403",
			"primitives":[
				{
					"attributes":{
						"POSITION":4,
						"NORMAL":5,
						"TEXCOORD_0":6
					},
					"indices":7,
					"material":1
				},
				{
					"attributes":{
						"POSITION":8,
						"NORMAL":9,
						"TEXCOORD_0":10
					},
					"indices":11,
					"material":2
				}
			]
		}
	],
	"accessors":[
		{
			"bufferView":0,
			"componentType":5126,
			"count":10771,
			"max":[
				1.0481693744659424,
				1.0054832696914673,
				0.9999982714653015
			],
			"min":[
				-1.2389380931854248,
				-1.0000001192092896,
				-3.5260088443756104
			],
			"type":"VEC3"
		},
		{
			"bufferView":1,
			"componentType":5126,
			"count":10771,
			"type":"VEC3"
		},
		{
			"bufferView":2,
			"componentType":5126,
			"count":10771,
			"type":"VEC2"
		},
		{
			"bufferView":3,
			"componentType":5123,
			"count":19932,
			"type":"SCALAR"
		},
		{
			"bufferView":4,
			"componentType":5126,
			"count":568,
			"max":[
				0.9999997019767761,
				0.8428581357002258,
				0.9807849526405334
			],
			"min":[
				-0.9999990463256836,
				-0.8726333379745483,
				-1
			],
			"type":"VEC3"
		},
		{
			"bufferView":5,
			"componentType":5126,
			"count":568,
			"type":"VEC3"
		},
		{
			"bufferView":6,
			"componentType":5126,
			"count":568,
			"type":"VEC2"
		},
		{
			"bufferView":7,
			"componentType":5123,
			"count":2682,
			"type":"SCALAR"
		},
		{
			"bufferView":8,
			"componentType":5126,
			"count":88,
			"max":[
				0.3826829493045807,
				0.7956536412239075,
				0.9807849526405334
			],
			"min":[
				-0.7681774497032166,
				-0.19509032368659973,
				0.33370548486709595
			],
			"type":"VEC3"
		},
		{
			"bufferView":9,
			"componentType":5126,
			"count":88,
			"type":"VEC3"
		},
		{
			"bufferView":10,
			"componentType":5126,
			"count":88,
			"type":"VEC2"
		},
		{
			"bufferView":11,
			"componentType":5123,
			"count":198,
			"type":"SCALAR"
		}
	],
	"bufferViews":[
		{
			"buffer":0,
			"byteLength":129252,
			"byteOffset":0,
			"target":34962
		},
		{
			"buffer":0,
			"byteLength":129252,
			"byteOffset":129252,
			"target":34962
		},
		{
			"buffer":0,
			"byteLength":86168,
			"byteOffset":258504,
			"target":34962
		},
		{
			"buffer":0,
			"byteLength":39864,
			"byteOffset":344672,
			"target":34963
		},
		{
			"buffer":0,
			"byteLength":6816,
			"byteOffset":384536,
			"target":34962
		},
		{
			"buffer":0,
			"byteLength":6816,
			"byteOffset":391352,
			"target":34962
		},
		{
			"buffer":0,
			"byteLength":4544,
			"byteOffset":398168,
			"target":34962
		},
		{
			"buffer":0,
			"byteLength":5364,
			"byteOffset":402712,
			"target":34963
		},
		{
			"buffer":0,
			"byteLength":1056,
			"byteOffset":408076,
			"target":34962
		},
		{
			"buffer":0,
			"byteLength":1056,
			"byteOffset":409132,
			"target":34962
		},
		{
			"buffer":0,
			"byteLength":704,
			"byteOffset":410188,
			"target":34962
		},
		{
			"buffer":0,
			"byteLength":396,
			"byteOffset":410892,
			"target":34963
		}
	],
	"buffers":[
		{
			"byteLength":411288,
			"uri":"data:application/octet-stream;base64,"
		}
	]
}
